<svg xmlns="http://www.w3.org/2000/svg" version="1.0" viewBox="0 0 206 219"><path d="M90 4.6C78.4 7.7 67.3 15.8 60.6 25.9c-5.6 8.4-7.7 14.6-8.3 24.6C50.8 72.9 63.2 96.2 94 129l7 7.5 10.3-10.5c17-17.5 31.7-38.4 37.5-53.8 2.3-5.9 2.6-8.3 2.6-19.2.1-14.5-1.4-19.5-8.7-29.2C130.1 7.1 109.2-.6 90 4.6m30.3 11.2c18.8 8.8 28.3 28.6 23.2 48.7-2.2 8.8-10.5 24.8-17.8 34.5-6.1 8.1-22.6 26.5-23.7 26.5-.3 0-4.1-3.8-8.4-8.5C75 97.2 62.7 76.4 59.8 60c-1.2-7 .3-18.1 3.3-24.9 3.5-8 12.9-16.2 23.9-20.8 4.8-2.1 6.8-2.3 16.1-2s11.3.7 17.2 3.5"/><path d="M83.2 30.7c-7.6 3.7-11.5 16-7.8 24.6.7 1.8 5.3 7.1 10.2 11.9 12.2 11.9 15 14.1 17.2 13.4 2.9-1 22.4-21.1 25.4-26.3 1.5-2.7 2.8-6.2 2.8-7.8 0-4.3-3.8-10.4-8.8-14.2-5.2-4-10.4-4.4-16.8-1.2l-4.3 2-4-2c-4.8-2.5-9.4-2.6-13.9-.4m14.6 10.9 4.2 3.6 4.2-3.6c5.1-4.4 9.7-4.8 13.3-1.2 5.8 5.8 3.8 11-8.9 23.6l-8.6 8.5-7.6-7.5C80.9 51.8 78.3 45.5 84.1 40.6c4.4-3.7 8.5-3.5 13.7 1"/><path d="M25.5 83.1C13.9 89.2 3.9 94.9 3.3 95.8c-1.6 2-1.9 110.5-.3 114.7 1.3 3.4.6 3.6 25.5-7.9 11-5.1 21.1-9.7 22.5-10.3 2.1-.8 4-.3 12 3.5 30.9 14.5 37.7 17.5 39.2 17.4 1 0 12-4.9 24.5-10.8s23.3-10.7 23.8-10.7c.6 0 10.9 4.6 22.9 10.3 12 5.6 23.3 10.3 25 10.4 2.8.1 3.1-.2 3.8-3.9.4-2.2.7-28.4.7-58.3L203 96l-3.2-2c-8.4-5.2-43.1-22.1-44.5-21.6-.9.4-1.3 1.7-1.1 3.8.3 3.1 1 3.6 20.8 13.9l20.5 10.7.8 49.8c.4 28.1 1.2 51.2 1.7 52.8 1.3 3.9.7 4.2-2.3 1.2-1.4-1.4-11.1-6.7-21.5-11.8l-19.1-9.3v-26.2l-.1-26.2 17.3 8.3c20.2 9.8 21.7 10.3 21.7 8.2s-5.3-5.5-23.4-15.2l-15.1-8-.5-20.7c-.5-21.3-1.2-24.5-4.4-21.8-2.4 2-3 6.7-3 25.5-.1 14.8-.4 18-1.6 18.7-.8.4-11 5.3-22.6 10.9l-21.1 10.2-22.1-11.1L58 125v-5.3c-.1-2.8-.5-11.4-.9-18.9-.7-11.6-1.2-14.1-3.1-16.7-1.2-1.7-2.6-2.9-3.1-2.6-.5.4-.9 9.8-.9 21.5v20.8l-12.7 6.8C22.4 138.4 11 145.5 11 147c0 2.3 5.4.5 20.9-7 9-4.4 16.7-8 17.2-8s.8 11 .7 25.6l-.3 25.6-19.8 9.4c-10.9 5.2-20 9.4-20.3 9.4-.2 0-.4-22.9-.4-50.8v-50.8l20.3-9.9 20.2-10 .3-4.3c.3-3.5 0-4.2-1.5-4.2-1 .1-11.2 5-22.8 11.1m28.8 44.3c.6 1.5-.1 2.6-1.5 2.6-.4 0-.8-.9-.8-2 0-2.3 1.5-2.7 2.3-.6m25.5 14.5 20.2 10v25.5c0 16.3-.4 25.6-1 25.6-.5 0-10.2-4.6-21.5-10.2l-20.4-10.2-.3-25.3c-.3-22-.1-25.3 1.2-25.3.8 0 10.6 4.5 21.8 9.9m67.6-6.8c.3 1.7.6 13.2.6 25.5V183l-21.7 10.8c-18.2 8.9-21.9 11.1-22.1 13-.3 1.6-.8 2.2-1.9 1.8-.8-.3-2-.6-2.6-.6-.7 0 .2-1.1 1.8-2.4l3-2.4.3-26 .3-26 20.2-9.6c11.1-5.3 20.5-9.6 20.8-9.6.4 0 .9 1.4 1.3 3.1"/></svg>