<svg xmlns="http://www.w3.org/2000/svg" version="1.0" viewBox="0 0 512 512"><path d="M234.9 34.3c-17.2 4.9-27.5 20.8-24.7 38.3 1.7 10.7 8.8 20.3 18.7 25.1 4.9 2.4 6.8 2.8 14.6 2.8 10.9 0 16.3-2.3 24.1-10 7.1-7.1 9.7-14.2 9.2-25-.6-9.7-3.3-16-9.6-22.3-8.1-8.2-21.7-11.9-32.3-8.9m18 19.7c12.6 8.9 6.1 29.2-9.3 29.2-5.7 0-8.7-1.4-12.4-5.6-6.9-7.9-5-19 4.2-24.8 4.3-2.7 13-2.1 17.5 1.2"/><path d="M107.5 69.4c-6.6 3.1-42.5 39.1-45 45.1-.9 2.2-1.7 6.7-1.7 10-.1 19.3 18.5 32.3 36.4 25.5 4.3-1.6 7.8-4.5 18.8-15.5l13.6-13.6 8.7.3 8.7.3-14.5 21.8L118 165l-20.4 10.2-20.3 10.1-18.9-11.8c-10.3-6.5-20.3-12.4-22.1-13.1-5.2-2.2-15-1.8-20.8 1C5.6 166.1.1 174.9 0 186.1c0 7.5 3.2 15.2 8.1 19.3 4.6 3.9 55.1 35.1 58.8 36.4 1.9.7 6.2 1.2 9.7 1.2 6.1 0 7.2-.5 33.4-13.5l27-13.5 16.9 8.5c13.9 6.9 17.3 9 19 11.9 1.2 1.9 3.9 5 6.1 7 3.1 2.8 6.7 8.9 16 27.6l12 24-10.2 5.1-10.3 5.1-26-16.3c-14.3-8.9-28-17.1-30.5-18.3-7.1-3.2-18.7-2.9-26.5.7-7.6 3.6-14.7 11-17.5 18.3-2.7 7.3-2.7 17.5 0 24.8 3.7 9.8 7.2 12.6 45.4 36.5 19.5 12.2 37.6 23.1 40.2 24.2 6.7 3 14.8 3.5 21.9 1.5 3.2-1 21.4-9.5 40.4-19l34.6-17.4 29.3 14.7 29.4 14.6L347 409c21.3 42.4 22.6 44.4 32.5 49.4l5 2.5-83.8.1c-92.1 0-88.4-.2-90.6 6.1-1.4 4.2.6 9.1 4.5 10.7 2.2.9 36.9 1.2 143.7 1l140.9-.3 2.4-2.8c3.1-3.6 3.1-7.8 0-11.4l-2.4-2.8-47.9-.5c-27-.3-46.5-.9-44.9-1.3 4.1-1.1 10.9-6 14.5-10.4 5.2-6.2 7.3-13.5 6.9-23l-.3-8.2-22.5-45.2c-14-28.1-24.1-47.3-26.7-50.5l-4.2-5.2 3.2.9c1.8.5 5.7.9 8.7.9 8 0 93.8-17.3 99.2-20 5.9-3 12.4-9.5 15.6-15.5 2.4-4.5 2.7-6.1 2.7-15s-.3-10.5-2.7-15c-3.2-6.1-9.7-12.5-15.8-15.6-8.6-4.3-15.6-3.9-50.3 3.1-16.9 3.4-31.2 6-31.7 5.8s-13.4-20.6-28.6-45.3c-15.2-24.8-29.4-46.9-31.6-49.2-2.3-2.3-6.8-5.4-10.2-7l-6.1-2.8h-91.1l-20-32.4c-10.9-17.9-21.2-33.8-22.9-35.4-1.6-1.7-5.2-4.1-8-5.3-4.9-2.3-5.5-2.4-38.5-2.4-33.2 0-33.5 0-38.5 2.4m70.3 16.4c2.6 1.4 7.2 8 22.8 33.6l19.6 31.9-7 7-6.9 6.9-7.9-12.6c-8.4-13.5-10.8-15.6-16.1-13.9-2.1.7-5.6 5.1-14.6 18.3-6.5 9.6-12 18.5-12.3 19.8-1.3 4.9 1.4 8.1 11 12.9 5 2.5 9.3 4.7 9.5 4.9s-1 2.5-2.7 5.1c-1.6 2.6-3.5 6.5-4.1 8.5l-1.2 3.7-15.5-7.6-15.4-7.7-29.8 14.7C90.9 219.4 76.6 226 75.4 226s-14.1-7.5-28.8-16.6c-26.9-16.8-29.6-19-29.6-24.5 0-1.1 1.6-3.7 3.5-5.6 3-3 4.1-3.5 6.8-3 1.8.3 12 6 22.6 12.6C72.2 202.9 74.1 204 77 204c1.1 0 13.7-5.8 27.8-12.9l25.7-13 20.8-31c22.6-34 23.1-35.2 18.3-40.8l-2.4-2.8-18.3-.3c-27.3-.5-24.9-1.4-39.7 13.9-12.9 13.3-17.4 16.9-21 16.9-5.9 0-10.9-6.2-9.6-11.7.8-3.4 31.1-34.4 35.8-36.7 2.6-1.3 7.9-1.6 31.6-1.6 25.2 0 28.9.2 31.8 1.8m146.9 75.3c1.5.6 3.8 2 5.1 3.2s15.9 24.1 32.4 51c21 34.2 30.8 49.2 32.5 50 2.1.9 9-.2 39.7-6.3l37.2-7.4 5 2.5c6.5 3.2 9.4 7.6 9.4 14.4 0 5.6-2.4 10.2-7 13.7-1.7 1.2-16.6 4.6-48 10.9-49 9.8-49 9.8-55.2 5-1.3-1.1-9.8-13.9-18.8-28.6-17.8-28.9-19.2-30.6-25.4-28.5-2.8.9-5.6 4.6-18.9 24.6-16.1 24-17.3 26.6-14.7 31.5.7 1.1 14.1 8.5 33 17.9 25 12.5 32.4 16.6 34.3 19.2 1.4 1.8 12.1 22.4 23.8 45.8 20 39.9 21.3 42.8 21.3 48.2.1 4.2-.4 6.3-2 8.5-6.6 9-18.9 10-26 2.1-1.2-1.2-11.2-20.4-22.3-42.5L340 356.1 306 339c-21.4-10.7-35-17-36.9-17-2 0-17 7-41.1 19-34.3 17.1-38.6 19-43.1 19-2.8 0-6-.5-7.2-1.1-7-3.7-68.7-42.7-71.4-45.2-6.1-5.7-6.8-14.8-1.6-21.5 3.3-4.4 8.4-6.5 14.4-6 3.9.4 9.2 3.4 34.5 19.1 16.4 10.3 30.8 18.7 32.1 18.7s17.9-7.8 37.1-17.4l34.7-17.4 28-41.8c24.4-36.6 27.9-42.4 27.9-45.8 0-3-.6-4.3-2.7-6.2l-2.8-2.4h-58.2l-19.6 19.4c-10.8 10.6-20.6 19.9-21.8 20.5s-4.4 1.1-7.1 1.1c-11.8 0-19.7-12.4-14.4-22.6 2.4-4.6 46.6-48.9 50.2-50.3 3.5-1.4 84-1.4 87.7 0M193 177.7c0 .3-.7 1.4-1.6 2.4-1.6 1.7-1.9 1.7-7.8-1.3-3.3-1.7-6.3-3.2-6.5-3.4s1.4-3 3.5-6.3l3.8-5.9 4.3 6.9c2.4 3.8 4.3 7.2 4.3 7.6m94.3 35.2c-7.9 12.4-33.9 51.1-34.3 51.1-.3 0-4.2-7.4-8.7-16.3l-8.1-16.4 10.6-10.6 10.7-10.7h31.7zm-55.9 48.9 8.4 16.8-8.5 4.3c-4.7 2.3-8.7 4.1-8.8 3.9-.2-.2-4.1-8-8.9-17.5l-8.5-17.2 5.7-1.6c3.1-1 6.8-2.5 8.2-3.6 1.4-1 2.8-1.9 3.2-1.9.5 0 4.6 7.6 9.2 16.8m115.1 24c6.6 10.8 13.7 21.3 15.7 23.4 3.5 3.5 1.9 2.8-19.7-7.9-12.9-6.5-23.5-12.1-23.5-12.5 0-1 14.3-22.8 15-22.7.3 0 5.9 8.8 12.5 19.7"/><path d="M395.1 93.6c-13.1 3.5-23.9 12.7-30 25.3-3.5 7.4-3.6 7.9-3.6 19.6s.1 12.2 3.6 19.6c15.2 31.8 57.9 36.2 79 8.2 17.2-22.7 9.5-56.3-15.8-69.2-9.9-5-22.7-6.3-33.2-3.5m23.5 18.3c5.9 2.7 11.1 7.7 14.2 13.5 2.2 4.3 2.7 6.4 2.7 13.1s-.5 8.8-2.7 13.1c-4.9 9.4-12.6 14.4-23 15.2-8.6.6-14.2-1-20.4-5.7-10.7-8-14.1-23.1-8.1-35.3 3.2-6.5 9.1-12.1 15.1-14.2s17.2-2 22.2.3M164.4 462c-5.5 2.2-6.9 9.1-3 13.7 2.3 2.7 2.9 2.8 12.6 3.1 5.5.2 11.2.1 12.5-.2 6.9-1.7 8.8-10.4 3.4-15-2.9-2.4-3.7-2.6-13.2-2.5-5.6 0-11.2.4-12.3.9"/></svg>