<svg xmlns="http://www.w3.org/2000/svg" version="1.0" viewBox="0 0 512 512"><path d="M252 28.4c-1.9.6-58.9 41.8-126.6 91.4C29.6 189.9 2 210.6 1 213c-.7 1.8-1 5-.7 7.7.4 3.8 1.2 5.4 4.1 8 3 2.8 4.3 3.3 8.3 3.3 2.9 0 6-.7 7.8-1.8 1.7-1 55.3-40.2 119.3-87L256 58.1l114.3 83.6c62.8 46.1 116.4 85.2 119.1 87 3.8 2.6 5.8 3.3 9.7 3.3 4.2 0 5.5-.5 8.5-3.3 3.1-2.8 3.7-4.2 4.1-8.3.4-3.4 0-6-1-8S470.3 181 387 120c-67.2-49.2-123.2-90-124.4-90.6-3.8-2-7-2.3-10.6-1"/><path d="M64.1 233.8c-1.9.9-4.4 3-5.5 4.5-2.1 2.8-2.1 3.3-2.4 118-.2 80.3 0 116.3.8 118.9.7 2.4 2.4 4.8 4.7 6.5l3.6 2.8 68.4.3c45.3.2 69.6-.1 72.2-.8 2.3-.6 5.2-2.4 7-4.5l3.1-3.6v-65.7c.1-36.1.5-68.7.9-72.4 1.8-13.6 9.9-25.1 22-31.1 6.1-3 7.2-3.2 17.1-3.2 9.3 0 11.2.3 16.2 2.7 12.4 5.8 21.1 17.8 22.9 31.4.4 3.8.8 36.5.9 72.6v65.7l3.1 3.6c1.8 2.1 4.7 3.9 7 4.5 2.6.7 26.8 1 72.1.8l68.3-.3 3.4-2.4c6.4-4.6 6.1 2.3 6.1-123.8 0-107.3-.1-115-1.8-118.2-4.8-9.6-17.9-10.5-23.3-1.7-1.8 3-1.9 7.2-1.9 110.8V457H323.1l-.3-63.7-.3-63.8-3.1-8.6c-15.1-42.3-63.4-58.7-100.6-34.2-12.1 7.9-21.2 19.9-26.5 34.8l-2.8 8-.3 63.7-.3 63.8H83V349.2c0-103.6-.1-107.8-1.9-110.8-2-3.3-7.5-6.4-11.3-6.4-1.2 0-3.8.8-5.7 1.8"/></svg>