<svg xmlns="http://www.w3.org/2000/svg" version="1.0" viewBox="0 0 512 512"><path d="M235.7 2.4c-3.7 1.3-9.8 4.3-13.4 6.6l-6.6 4.1-6.8-1.6c-12.9-2.9-24.9-1.3-36.8 5-12.8 6.7-21.8 16.9-26.9 30.1-2.4 6.5-2.6 8.2-3 28.9-.8 36.9-.7 41.5 1.2 48 5.8 19.6 18.1 30.3 39 33.9l7 1.2 4.8 18.9 4.8 18.9-2.8 2.3c-1.5 1.2-13.4 10-26.4 19.4-45.7 33.1-54.7 41.7-58.3 55.6-3.9 14.8.4 41.6 12.1 76.8 7.1 21.4 8.5 23.4 18.7 26.9 13.9 4.7 36.6-1.6 48.8-13.5 2.8-2.7 5.3-4.8 5.6-4.5 1.2 1.2 2.3 23.4 1.8 34.1-1.3 23-4.6 32.7-18.9 55.6-5.3 8.4-12.6 21-16.1 28-5.3 10.4-6.5 13.6-6.5 17.5 0 6.3 3.8 12.7 9 15.4 3.8 2 5.9 2 111 2 118.1 0 109.8.5 115.8-6.4 5.2-6 5.3-11.5.6-29.6-1.3-5.2-4.2-14.2-6.4-20-6.5-17.6-7.4-22-7.4-37 0-11.9.8-17.9 6.2-49.5 10.9-64.6 14.9-94.6 15.8-120 .9-23.3-2.4-36.3-11.4-45.3-4.8-4.8-6.4-5.3-28.7-8.7-17.4-2.7-56.2-10.1-71.6-13.6l-8.7-2-2.6-7.1-2.6-7.1 4.3-3.8c7.2-6.3 12.4-18.3 15.1-35 .6-3.1 1.5-4.2 6.7-7.4 10.7-6.6 17.5-18.1 19.9-33.8 3.5-23-7.1-45.2-26.3-55.2-4-2.1-6.2-4.2-8.8-8.3-4.9-7.8-12.8-15.3-19.5-18.7-5-2.4-7.3-2.9-15.4-3.2s-10.5 0-16.3 2.1m25.4 15.7c4.5 2.2 11.3 9.8 14.4 16 2.9 5.5 3.8 6.3 13.4 11.4 9.2 4.9 14.1 11.3 16.7 21.5 2.9 11.3.1 26.9-6 34.4l-2.3 2.8-.7-5.8c-2.2-18.8-7.1-33.6-13.2-39.8-4.2-4.1-8.5-6-21.8-9.5-17-4.4-22.9-7.9-28.9-17-5.5-8.2-5.4-8.4 2-12.1 10.4-5.2 18.8-5.9 26.4-1.9m-54.5 9c4.2 1.1 5 1.9 10 9.3 3 4.4 5.4 8.5 5.4 9.1 0 2.3-6.8 9.1-16.9 16.8-27.9 21.4-30.4 27.8-23.7 60.8 2 9.7 3.6 18 3.6 18.3 0 1.4-6.4-.6-12.2-3.6-3.2-1.7-7-4.6-8.4-6.5-6.6-8.7-8.9-23.4-6-37.8 1.1-5.9 1.3-9.1.6-12-1.5-6.3-1.2-21.5.6-27.5 3.6-12.2 14.1-22.6 26.7-26.5 5.3-1.7 14.4-1.8 20.3-.4m35.9 32.3c3.3 1.4 10.8 3.8 16.8 5.4 5.9 1.6 11.6 3.7 12.7 4.7 2.3 2.1 6.6 14.6 8 23.5 3.2 20.8-1.7 48.8-10 57.2-3.5 3.6-4.2 3.8-9.8 3.8-4.2 0-8.7-.9-14.5-3-12.1-4.3-15.5-3.9-17.6 2-2.2 6.4 1.2 9.4 16.3 14.5 4.1 1.4 9.4 2.5 11.9 2.5h4.4l4.2 11c3.4 8.9 4.8 11.3 7 12.5 2.8 1.4 45.3 10.4 68.6 14.4 6.6 1.2 12.9 2.4 14.1 2.6l2.1.5-2 5.7c-2.6 7.9-2 27.4 1.3 37.8 4.7 15.1 13.3 26.1 22.3 28.7 2.3.6 4.3 1.2 4.4 1.3.5.3-6.7 48.3-11.6 78-2.7 16.5-5.4 34.4-6 39.7-2.4 21.6-.8 37.4 5.5 54.5 5.4 14.7 9.5 29.2 9.7 34.8l.2 5-103.3.3c-95.9.2-103.3.1-103.9-1.5-.9-2.3 7.4-18.2 20.1-38.6 10.7-17.2 14.8-26.5 18-40.3 2.3-10.6 3.7-28.5 3-40.5l-.7-10.6 11.4-.6c12.3-.6 21.1-2.8 31.1-7.8 6.8-3.4 16.4-11.3 19.7-16l2.4-3.5 8.3 4.2c21.4 10.7 41.8 10.9 62.4.6 8.2-4.1 9.6-5.1 10.4-7.9 1-3.8-1-7.7-5-9.5-2.1-1-3.7-.5-11.2 3-4.8 2.2-11.5 4.6-15 5.3-14.9 2.8-31.9-1.8-45.3-12.3-6.9-5.3-11.9-3.6-16.5 5.6-1 2.2-4.2 6.2-6.9 9-14.9 15-40.4 18-56.9 6.7-7.3-5-8-6.8-8.6-20.6-.5-11.5-.8-12.5-5.4-23.7-5.3-12.8-7.1-15.1-11.6-15.1-3.6 0-8 3.7-8 6.8 0 1.2 1.8 6.6 4 12 3.6 8.8 4 10.7 4 18.2v8.3h-4.5c-9.8 0-21.7 4.1-30.6 10.4l-4.7 3.5-2.1-6.7c-8.6-28.7-11.3-51.7-7.2-60.7 3.5-7.8 18.7-20.4 61.4-51 15-10.7 25.3-19.5 26.2-22.4.3-1-2.4-14-6-29-13.5-56.5-16.6-71.2-15.8-75.3s7.4-11.1 20.3-21.3c6.3-5 13.6-11.5 16-14.3 2.5-2.8 5-4.9 5.5-4.7.6.2 3.7 1.5 7 2.9m136.8 156.4c2.3 2.6 5.4 10 6.2 15.1.4 2.4.4 11.8 0 20.8-.6 14.4-.9 16.3-2.4 16.3-2.2 0-6.3-4.4-8.9-9.6-5.7-11.2-7.3-30.8-3.4-39.7 1.6-3.7 2.6-4.7 4.5-4.7 1.3 0 3.1.8 4 1.8M182.1 345c2.6 1.4 2.4 2.3-1.2 6.5-6.2 7-16.8 11.5-27.5 11.5-7.4 0-10-1.5-9-5.4 1-4.2 13.9-11.5 22.6-12.9 5.2-.9 13.2-.7 15.1.3"/><path d="M324.2 298c-2.3 1-4.2 4.6-4.2 8.1 0 3 4.4 6.9 7.8 6.9 6.7 0 9.9-9.7 4.6-13.9-2.9-2.3-4.6-2.5-8.2-1.1m-112 19.6c-3.5 2.4-4.4 5.9-2.8 9.9 3.8 9 16.7 3.3 13.6-5.9-1-3.1-4.3-5.6-7.3-5.6-.7 0-2.3.7-3.5 1.6m63 129.7c-6.9 7.4 3.2 17.9 11.2 11.6 3.5-2.7 3.6-8.6.3-11.7-3.2-3-8.7-2.9-11.5.1"/></svg>