<svg xmlns="http://www.w3.org/2000/svg" version="1.0" viewBox="0 0 512 512"><path d="M247 29.1c-69.2 7.8-129.3 56.7-151 122.7-6.7 20.5-8.2 30.5-8.8 57.1l-.4 23.5-17.1 26c-19 29.1-21.2 33.5-20.4 41.2 1.2 11.6 6.4 17 24.7 25.7l13.6 6.4 4.8 27.9c2.7 15.3 5.8 30.6 6.8 33.9 5.8 17.8 19.3 31.3 37.5 37.3 7.5 2.4 8.9 2.5 37.1 3 29.2.4 29.3.4 32.2 2.8 3 2.6 4.2 6.6 9.1 31.4 1.8 9.1 2.8 11.9 4.7 13.7l2.5 2.3h87.6c78.8 0 87.9-.2 89.9-1.6 4.6-3.2 4.5-4.6-1.9-35.1-7.1-33.6-8.2-44.9-5.5-58.4 2.6-12.8 6.5-20.7 27.1-54.4 22.1-36.3 27.9-47.3 33.3-63.8 10.9-32.9 12.8-66.2 5.6-98.6-17.2-77-81-134-159.9-143.1-10.5-1.2-40.7-1.1-51.5.1M311.4 48c52.7 11.4 94.8 43.8 117.6 90.5 19.5 39.8 22.2 83.9 7.9 127-5.1 15.2-10.2 24.9-33.4 63-10.3 17-20.1 34.1-21.7 38-6.4 15.3-9.2 35.8-6.9 50.5 1.1 7 8.6 44.4 9.7 48.2.5 1.7-3.6 1.8-75.9 1.8h-76.5l-.7-2.7c-.3-1.5-1.7-8.1-3.1-14.7-3.7-18.3-7.3-24.3-17.8-29.9-3.9-2.1-5.7-2.2-34.6-2.8-25.5-.4-31.2-.8-35-2.2-7.1-2.8-12.3-6.2-16.9-11.2-7.7-8.3-9.4-13.6-15.5-48.7-3-17.4-5.9-32.6-6.5-33.6-.6-1.1-7.6-4.9-16.1-8.8-16.1-7.4-20-10.1-20-14.3 0-3.1-.1-2.8 20.6-34.7l16.4-25.1v-12.4c.1-30 2.7-50.3 9-69.2 18.9-56.2 68-98.8 126-109.1 13.2-2.4 14.1-2.4 39.5-2.1 20 .3 25.7.7 33.9 2.5"/><path d="M253.5 69.5c-20 4.4-40.5 16.7-52.1 31.3-5.8 7.3-11.9 19.8-14 28.7-2.4 10.5-1.5 29.5 2 39.3 7.9 22.8 25.1 39.1 48.6 46.3 6 1.9 9.9 2.3 19 2.4 13.4 0 19.3-1.3 30.7-6.5 23.1-10.7 35.3-28 35.3-49.9 0-27.4-19.8-48.7-46.9-50.7-18.4-1.4-37.9 8.4-44.8 22.4-3.7 7.6-4 18.3-.5 25.3 3.2 6.6 9.6 12.5 16.2 15 17.6 6.7 41.3-6.5 31.8-17.6-3.1-3.6-7.6-3.6-12.7-.1-6.8 4.7-16.3 3.1-19.6-3.4-8-15.4 17.3-30.5 38.2-22.9 7.8 2.9 17 12.1 19.8 19.9 7.2 20-5.2 40.9-29.2 49.2-9.6 3.2-25.9 3.2-35.3-.1-22.9-8-37.1-27.9-37.3-52.1-.1-16.3 4.6-27.4 16.8-39.5 9.1-9.1 16.2-13.6 27.5-17.6 19.5-6.9 39.7-5.9 58.4 3 9.5 4.5 12.9 7 21.4 15.4 8.2 8 14.3 17.9 18.4 29.7 3 8.9 3.2 10.4 3.3 23 0 9.8-.5 15.3-1.8 20-2.4 9.2-8.7 21.5-14.6 28.5-6.6 7.9-8.4 11.2-7.7 14.1 1 3.7 4.5 6.4 8.5 6.4 2.9 0 4.3-.8 8.3-5.1 26.5-28.3 32.2-72.2 13.7-106.7-13-24.4-36.6-42.2-63.1-47.6-9.4-1.9-29.8-2-38.3-.1M128.3 226.8c-4.4.7-7.5 7-5.7 11.7 1.7 4.3 15.8 10.9 26 12 11.2 1.3 28.6-4.1 33.5-10.3 2.6-3.4 2.5-8.3-.3-10.9-4.1-3.6-5.6-3.5-13.7.4-6.8 3.4-8.4 3.8-15.1 3.7-5.8 0-8.6-.5-12.5-2.4-8.5-4.1-9.9-4.6-12.2-4.2"/></svg>