<svg xmlns="http://www.w3.org/2000/svg" version="1.0" viewBox="0 0 512 512"><path d="M125.1 113.5c-10 2.2-15.9 4.4-25.1 9.1-23.1 11.8-40.7 33.2-48.6 59-2.6 8.3-2.8 10.1-2.8 26.4s.2 18.1 2.8 26.4c5.4 17.8 17.6 36.7 29.9 46.6l5.6 4.4-4.7 2.6c-28.6 15.6-50.7 42.6-60.6 73.9-3.3 10.4-5.6 23.5-5.6 31.7v6.4h31.8l.6-3.1c.3-1.7.6-4.8.6-6.9 0-5.4 4.3-21.4 7.8-29.2 9.6-21.1 26.9-38.4 48-48 18.6-8.5 42.8-10.5 62.7-5.4 27 7 49.8 25.4 62 50.1 4.6 9.3 9.5 26 9.5 32.5 0 2.1.3 5.2.6 6.9l.7 3.1h31.5l.6-3.1c.3-1.7.6-4.8.6-6.9 0-5.4 4.3-21.4 7.8-29.2 9.6-21.1 26.9-38.4 48-48 18.6-8.5 42.8-10.5 62.7-5.4 27 7 49.8 25.4 62 50.1 4.6 9.3 9.5 26 9.5 32.5 0 2.1.3 5.2.6 6.9l.6 3.1H496v-6.4c0-8.2-2.3-21.3-5.6-31.7-9.9-31.3-32-58.3-60.6-73.9l-4.7-2.6 5.6-4.4c12.3-9.9 24.5-28.8 29.9-46.6 2.6-8.3 2.8-10.1 2.8-26.4s-.2-18.1-2.8-26.4c-9.8-32.1-34.1-56.4-66.2-66.2-8.3-2.6-10.1-2.8-26.4-2.8s-18.1.2-26.4 2.8c-32.1 9.8-56.4 34.1-66.2 66.2-2.6 8.3-2.8 10.1-2.8 26.4s.2 18.1 2.8 26.4c5.4 17.8 17.6 36.7 29.9 46.5l5.5 4.4-7.9 4.6c-16.3 9.4-32.2 24.4-42.1 39.6-2.2 3.3-4.3 6-4.8 6s-2.6-2.7-4.8-6c-9.9-15.2-25.8-30.2-42.1-39.6l-7.9-4.6 5.5-4.4c12.3-9.8 24.5-28.7 29.9-46.5 2.6-8.3 2.8-10.1 2.8-26.4s-.2-18.1-2.8-26.4c-9.8-32.2-34.3-56.6-66.2-66.2-7.5-2.3-11.2-2.7-23.9-3-10.6-.3-16.9.1-21.4 1.1m35.3 33.1c21.6 5.5 39.3 23.4 45.2 45.5 2.2 8.4 2.2 23.4 0 31.8-5.9 22.3-23.4 39.8-45.7 45.7-8.5 2.2-23.5 2.2-31.8 0-22.4-6-39.7-23.3-45.7-45.7-2.2-8.5-2.2-23.4 0-31.9 9.1-34.1 43.5-54.2 78-45.4m224 0c21.6 5.5 39.3 23.4 45.2 45.5 2.2 8.4 2.2 23.4 0 31.8-5.9 22.3-23.4 39.8-45.7 45.7-8.5 2.2-23.5 2.2-31.8 0-22.4-6-39.7-23.3-45.7-45.7-2.2-8.5-2.2-23.4 0-31.9 9.1-34.1 43.5-54.2 78-45.4"/></svg>