<svg xmlns="http://www.w3.org/2000/svg" version="1.0" viewBox="0 0 512 512"><path d="M4.4 2.5c-1.5 2.3-1.5 3-.1 8.3.8 3.1 4.3 16.5 7.6 29.7 12.9 50 15.6 59 23.9 77 20.2 44.4 50.5 79 83.8 95.8 6.6 3.3 24.1 9.4 24.8 8.6.1-.2 3-4 6.3-8.4 17.2-22.9 38.5-40.2 65.9-53.5 5.7-2.8 10.4-5.4 10.4-5.8 0-1.4-18.3-11-41.3-21.8-12.9-6-23.4-11-23.3-11 .4-.4 42.1 8.8 47.1 10.4 8.8 2.8 16.7 6.6 25.9 12.2l8.1 5 10-3.1c18.4-5.5 49.1-11.6 68.3-13.4 4.2-.5 7.2-1.2 7.2-1.9 0-2.2-13.1-18.5-22.6-27.9-24.1-24.2-60.2-46.6-93.9-58.3-23.3-8.1-46.2-12-106-17.9-37.3-3.7-57-8.6-83.6-21.1C9.7-.7 6.8-1.2 4.4 2.5"/><path d="M489.5 110.2c-15.3 7.9-38.6 15.6-61 20.2-20.6 4.2-35 6.3-78.5 11.1-65.2 7.3-96.7 14.6-127.6 29.5-36.4 17.6-61.9 43.1-80.8 80.8-18.6 37.1-30.9 79-37.2 126.2-2.2 16.7-3.1 67.9-1.4 87.8 1.8 22.3 5.2 38.6 9.1 43.6 3.7 4.8 11.9 2.6 11.9-3.1 0-1.2-.9-5.9-1.9-10.5-7.1-30.5-4.6-68.1 6.8-103.3 10.7-32.9 22.9-52.8 44.9-72.8 21.6-19.8 50.4-34.5 92.7-47.3 12.7-3.9 14.5-4.1 14.5-1.6 0 1.3-2.4 2.9-8.7 5.7-15.6 6.8-43.6 21.3-50.8 26.1-16.7 11.1-34.8 28.8-46.7 45.5-8.3 11.5-18.1 30.8-20.8 40.9-2.4 8.8-2.6 18.9-.5 23 .9 1.7 2.8 3.3 4.9 4 3.1 1 4.9.7 16.8-3.4 23.9-8 36-10.5 79.8-16.1 66-8.5 87.2-14.5 120.2-33.6 17-9.9 40.8-30.6 55.3-47.9 20-24.1 37.1-55.6 48.2-88.7 3-9 10.3-35.6 16.4-59.1 6-23.5 11.7-45.5 12.6-48.9 1.7-6.1 1.7-6.3-.3-9-3.3-4.4-8.1-4.2-17.9.9"/></svg>