<svg xmlns="http://www.w3.org/2000/svg" version="1.0" viewBox="0 0 512 512"><path d="M173.9 19.5c-35.6 5.8-68.4 21.3-94.9 44.8-32.6 29-54.3 70.2-60.1 114.1-1.7 13.7-.7 44.5 2 58 5.6 27.8 18.6 56.2 35.4 77.5 48.8 61.6 128.9 85.7 203 61.1 18.4-6.2 36.4-15.7 55.3-29.5 1.1-.7 4.2 1.8 12.9 10.5l11.5 11.5 14.2-14.3 14.3-14.2-11.5-11.5c-8.7-8.8-11.2-11.8-10.5-12.9 19.4-27 29.9-50 35.5-77.3 13.4-66.7-11.4-135.8-64.3-178.7-23.2-18.7-50.9-31.7-80.3-37.7-14-2.8-48.9-3.6-62.5-1.4m47.1 59c52.2 8.5 93.5 49.4 102.4 101.4 9.1 53.2-17 106.2-64.4 131-20.2 10.5-39.1 14.7-62.9 13.8-31.3-1.2-57.6-12.1-80-33.4-26.6-25.1-40.2-58-38.8-94.3.7-19.3 4-33.3 11.8-49.5 17.1-36.1 51.9-62.3 91.3-68.9 11.1-1.9 29.2-1.9 40.6-.1"/><path d="M109.6 158.2c-2.8 2.6-5.5 9.7-8.2 21.3-2.9 12.4-2.5 33.9.9 46.5 4.7 17.6 8.4 23.1 14.4 21.5 7.1-1.7 7.8-5.5 3.4-18.4-6.6-19.2-6.1-42.6 1.4-60.4 2.1-5.1 1.9-7.4-1-10.2-3.1-3.2-7.6-3.3-10.9-.3m18.9 98.9c-7.2 4.1-5.3 14.3 3.4 17.9 3.7 1.5 8-.3 9.9-4.2 1.7-3.6.7-6.9-3.1-10.6-3.7-3.6-7.4-4.7-10.2-3.1m234.8 106.2C345.6 381 340 387.2 340 389c0 2 10.7 13.2 48.2 50.7 54.9 54.8 53.2 53.5 68.8 54.1 11.9.5 18.4-2 26.6-10.2s10.7-14.7 10.2-26.6c-.6-15.6.7-13.9-54.1-68.8C402.2 350.7 391 340 389 340c-1.8 0-8 5.6-25.7 23.3"/></svg>